<?xml version="1.0" encoding="utf-8"?>
<!-- Generator: Adobe Illustrator 16.0.3, SVG Export Plug-In . SVG Version: 6.00 Build 0)  -->
<!DOCTYPE svg PUBLIC "-//W3C//DTD SVG 1.1//EN" "http://www.w3.org/Graphics/SVG/1.1/DTD/svg11.dtd">
<svg version="1.1" xmlns="http://www.w3.org/2000/svg" xmlns:xlink="http://www.w3.org/1999/xlink" x="0px" y="0px" width="500px"
	 height="500px" viewBox="0 0 500 500" enable-background="new 0 0 500 500" xml:space="preserve">
<g id="Layer_1" display="none">
</g>
<g id="Layer_6" display="none">
	<rect display="inline" fill="#CB2027" width="500" height="500"/>
</g>
<g id="Layer_4" display="none">
	
		<rect x="73.223" y="73.223" transform="matrix(0.7071 0.7071 -0.7071 0.7071 249.9994 -103.5527)" display="inline" fill="#FFFFFF" width="353.553" height="353.554"/>
</g>
<g id="Layer_5">
	
		<rect x="80.294" y="80.295" transform="matrix(0.7071 0.7071 -0.7071 0.7071 250.0004 -103.5527)" fill="none" stroke="#333333" stroke-width="14" stroke-miterlimit="10" width="339.411" height="339.411"/>
</g>
<g id="Layer_3">
	<path fill="#333333" d="M310.408,351.068c-12.781,0-23.621-10.354-43.846-30.902c-3.396-3.236-6.311-6.633-9.383-9.869
		c1.455-2.102,3.072-4.367,4.529-6.957l14.885-25.887c3.074,0.486,6.148,0.81,9.545,0.81c17.961,0,38.346-9.223,51.611-32.359
		c4.693-8.251,6.795-16.017,6.795-22.651c0-15.208-9.867-25.077-22.326-25.077c-9.221,0-20.225,6.472-27.828,19.738l-26.209,45.139
		c-9.869-5.176-16.799-16.005-12.537-29.432l33.33-97.074c-37.051-11.973-79.278,101.767-122.314,102.09
		c-25.886,0.162-32.843-24.754-19.577-47.243c14.562-24.754,39.962-25.239,47.891-5.986l13.429-5.178
		c-13.105-30.254-55.495-27.828-73.939,3.883c-19.9,34.299-2.912,69.085,32.196,69.085c23.136,0,41.581-18.769,58.407-41.095h22.652
		l-5.988,17.15c-7.604,21.098,7.035,36.714,20.787,43.671l-13.428,23.297c-0.809,1.295-1.457,2.588-2.266,3.721
		c-7.765-6.956-15.855-11.811-26.209-11.811c-15.208,0-22.975,10.678-22.975,21.195c0,10.516,7.767,21.033,23.784,21.033
		c8.251,0,17.958-3.236,26.696-10.518c18.119,18.607,38.184,44.494,61.965,44.494c22.166,0,31.873-13.752,31.873-13.752l-8.25-8.738
		C326.264,349.127,318.498,351.068,310.408,351.068z M307.012,225.033c5.014-8.575,10.516-12.296,15.207-12.296
		c6.311,0,9.223,4.207,9.223,10.355c0,15.694-19.092,44.006-45.303,44.006h-3.396L307.012,225.033z M231.054,204.013
		c12.456-17.15,24.106-35.27,36.241-47.728l-16.826,47.728H231.054z M219.806,317.416c-6.634,0-9.708-3.883-9.708-7.928
		c0-4.207,3.236-8.414,8.898-8.414c6.148,0,12.62,3.723,19.092,9.223C232.91,314.988,226.924,317.416,219.806,317.416z"/>
</g>
</svg>
