<?xml version="1.0" encoding="utf-8"?>
<!-- Generator: Adobe Illustrator 16.0.3, SVG Export Plug-In . SVG Version: 6.00 Build 0)  -->
<!DOCTYPE svg PUBLIC "-//W3C//DTD SVG 1.1//EN" "http://www.w3.org/Graphics/SVG/1.1/DTD/svg11.dtd">
<svg version="1.1" id="Layer_1" xmlns="http://www.w3.org/2000/svg" xmlns:xlink="http://www.w3.org/1999/xlink" x="0px" y="0px"
	 width="100px" height="100px" viewBox="0 0 100 100" enable-background="new 0 0 100 100" xml:space="preserve">
<polygon fill="none" stroke="#00A651" stroke-width="3" stroke-miterlimit="10" points="7.437,50 50.583,92.146 92.563,50.773 
	49.999,7.853 "/>
<path fill="#00A651" d="M56.713,61.724c-1.482,0-2.739-1.202-5.085-3.585c-0.395-0.375-0.732-0.77-1.089-1.146
	c0.17-0.243,0.356-0.506,0.525-0.807l1.727-3.002c0.356,0.057,0.713,0.094,1.107,0.094c2.083,0,4.447-1.07,5.986-3.754
	c0.544-0.957,0.788-1.857,0.788-2.627c0-1.764-1.145-2.909-2.59-2.909c-1.069,0-2.346,0.75-3.228,2.29l-3.041,5.236
	c-1.145-0.602-1.947-1.857-1.453-3.414l3.865-11.26c-4.297-1.389-9.195,11.804-14.188,11.842c-3.002,0.018-3.809-2.872-2.271-5.48
	c1.689-2.872,4.635-2.928,5.555-0.694l1.559-0.601c-1.521-3.509-6.438-3.228-8.577,0.451c-2.308,3.979-0.338,8.013,3.734,8.013
	c2.684,0,4.823-2.177,6.775-4.767h2.627l-0.695,1.989c-0.881,2.447,0.817,4.259,2.412,5.067l-1.558,2.702
	c-0.094,0.149-0.169,0.3-0.263,0.432c-0.9-0.807-1.839-1.37-3.04-1.37c-1.764,0-2.665,1.238-2.665,2.458s0.901,2.439,2.758,2.439
	c0.958,0,2.083-0.375,3.097-1.22c2.102,2.159,4.429,5.162,7.188,5.162c2.57,0,3.697-1.596,3.697-1.596l-0.957-1.015
	C58.552,61.497,57.651,61.724,56.713,61.724z M56.319,47.104c0.581-0.995,1.22-1.426,1.764-1.426c0.732,0,1.07,0.488,1.07,1.201
	c0,1.82-2.215,5.104-5.255,5.104h-0.395L56.319,47.104z M47.508,44.665c1.445-1.989,2.796-4.091,4.204-5.536l-1.951,5.536H47.508z
	 M46.204,57.819c-0.77,0-1.125-0.45-1.125-0.92c0-0.487,0.375-0.976,1.031-0.976c0.714,0,1.464,0.432,2.215,1.069
	C47.724,57.538,47.029,57.819,46.204,57.819z"/>
</svg>
