<?xml version="1.0" encoding="utf-8"?>
<!-- Generator: Adobe Illustrator 16.0.3, SVG Export Plug-In . SVG Version: 6.00 Build 0)  -->
<!DOCTYPE svg PUBLIC "-//W3C//DTD SVG 1.1//EN" "http://www.w3.org/Graphics/SVG/1.1/DTD/svg11.dtd">
<svg version="1.1" xmlns="http://www.w3.org/2000/svg" xmlns:xlink="http://www.w3.org/1999/xlink" x="0px" y="0px" width="50px"
	 height="50px" viewBox="0 0 50 50" enable-background="new 0 0 50 50" xml:space="preserve">
<g id="Layer_2_1_">
</g>
<g id="Layer_1">
	<g id="Layer_2" display="none">
		<rect x="1.997" y="1.668" display="inline" fill="#74C044" width="46.412" height="46.012"/>
	</g>
	<g>
		<path fill="#333333" d="M23.744,22.049h1.178l1.021-3.061C25.205,19.787,24.5,20.949,23.744,22.049z"/>
		<path fill="#333333" d="M29.833,23.273c0-0.395-0.178-0.664-0.561-0.664c-0.283,0-0.618,0.24-0.922,0.789l-1.472,2.701h0.205
			C28.674,26.099,29.833,24.28,29.833,23.273z"/>
		<path fill="#333333" d="M22.474,28.816c0,0.259,0.187,0.508,0.589,0.508c0.432,0,0.795-0.155,1.108-0.457
			c-0.394-0.354-0.784-0.591-1.157-0.591C22.67,28.276,22.474,28.547,22.474,28.816z"/>
		<path fill="#333333" d="M40.59,21.464L28.535,9.411c-1.944-1.945-5.126-1.945-7.071,0L9.411,21.464
			c-1.945,1.945-1.945,5.126,0,7.071L21.464,40.59c1.945,1.944,5.126,1.944,7.071,0L40.59,28.535
			C42.534,26.591,42.534,23.409,40.59,21.464z M25.897,29.5c1.228,1.318,1.884,1.983,2.658,1.983c0.492,0,0.963-0.125,1.413-0.593
			l0.501,0.561c0,0-0.589,0.883-1.934,0.883c-1.44,0-2.658-1.661-3.757-2.854c-0.53,0.466-1.119,0.674-1.619,0.674
			c-0.971,0-1.442-0.674-1.442-1.349c0-0.676,0.472-1.359,1.394-1.359c0.629,0,1.117,0.309,1.59,0.757
			c0.048-0.073,0.088-0.156,0.135-0.238l0.815-1.494c-0.833-0.445-1.72-1.45-1.259-2.803l0.362-1.099h-1.374
			c-1.02,1.433-2.139,2.636-3.541,2.636c-2.13,0-3.16-2.232-1.953-4.432c1.119-2.034,3.689-2.19,4.484-0.249l-0.814,0.332
			c-0.482-1.234-2.021-1.204-2.905,0.384c-0.806,1.443-0.382,3.042,1.188,3.03c2.609-0.021,5.17-7.316,7.418-6.547l-2.024,6.225
			c-0.256,0.862,0.165,1.558,0.763,1.89l1.589-2.896c0.46-0.851,1.128-1.266,1.688-1.266c0.755,0,1.354,0.632,1.354,1.609
			c0,0.425-0.128,0.922-0.412,1.453c-0.805,1.485-2.041,2.078-3.131,2.078c-0.205,0-0.392-0.021-0.578-0.051l-0.902,1.657
			c-0.09,0.166-0.188,0.313-0.274,0.446C25.514,29.075,25.691,29.294,25.897,29.5z"/>
	</g>
</g>
</svg>
