<?xml version="1.0" encoding="utf-8"?>
<!-- Generator: Adobe Illustrator 16.0.3, SVG Export Plug-In . SVG Version: 6.00 Build 0)  -->
<!DOCTYPE svg PUBLIC "-//W3C//DTD SVG 1.1//EN" "http://www.w3.org/Graphics/SVG/1.1/DTD/svg11.dtd">
<svg version="1.1" xmlns="http://www.w3.org/2000/svg" xmlns:xlink="http://www.w3.org/1999/xlink" x="0px" y="0px" width="50px"
	 height="50px" viewBox="0 0 50 50" enable-background="new 0 0 50 50" xml:space="preserve">
<g id="Layer_2" display="none">
	<rect x="1.997" y="1.668" display="inline" fill="#74C044" width="46.412" height="46.012"/>
</g>
<g id="Layer_1">
	<g>
		<path fill="#333333" d="M25,5.875L5.875,25L25,44.125L44.125,25L25,5.875z M28.159,32.334c-1.44,0-2.658-1.661-3.757-2.854
			c-0.53,0.466-1.118,0.674-1.618,0.674c-0.971,0-1.443-0.674-1.443-1.349c0-0.676,0.472-1.359,1.393-1.359
			c0.629,0,1.118,0.309,1.59,0.757c0.048-0.073,0.087-0.156,0.135-0.238l0.815-1.494c-0.833-0.445-1.72-1.45-1.259-2.803
			l0.363-1.099h-1.374c-1.02,1.433-2.139,2.636-3.542,2.636c-2.129,0-3.16-2.232-1.953-4.432c1.119-2.034,3.689-2.19,4.484-0.249
			l-0.814,0.332c-0.481-1.234-2.021-1.204-2.905,0.384c-0.805,1.443-0.382,3.042,1.188,3.03c2.609-0.021,5.17-7.316,7.418-6.548
			l-2.024,6.226c-0.256,0.862,0.165,1.558,0.763,1.89l1.589-2.896c0.46-0.851,1.128-1.266,1.688-1.266
			c0.755,0,1.354,0.632,1.354,1.609c0,0.425-0.128,0.922-0.412,1.453c-0.805,1.485-2.041,2.078-3.131,2.078
			c-0.205,0-0.392-0.021-0.578-0.051l-0.902,1.657c-0.09,0.166-0.188,0.313-0.274,0.446c0.185,0.208,0.362,0.427,0.568,0.633
			c1.228,1.318,1.884,1.983,2.658,1.983c0.492,0,0.963-0.125,1.413-0.593l0.501,0.561C30.093,31.451,29.504,32.334,28.159,32.334z"
			/>
		<path fill="#333333" d="M29.456,23.273c0-0.395-0.178-0.664-0.561-0.664c-0.283,0-0.618,0.24-0.922,0.789l-1.472,2.701h0.205
			C28.297,26.099,29.456,24.28,29.456,23.273z"/>
		<path fill="#333333" d="M23.367,22.049h1.178l1.021-3.062C24.828,19.787,24.123,20.949,23.367,22.049z"/>
		<path fill="#333333" d="M22.097,28.816c0,0.259,0.187,0.508,0.589,0.508c0.432,0,0.794-0.155,1.108-0.457
			c-0.393-0.354-0.784-0.591-1.157-0.591C22.292,28.276,22.097,28.547,22.097,28.816z"/>
	</g>
</g>
</svg>
